<?xml version="1.0" encoding="UTF-8" standalone="no"?>
<!-- Created with Inkscape (http://www.inkscape.org/) -->

<svg
   width="158.75mm"
   height="176.38873mm"
   viewBox="0 0 158.75 176.38873"
   version="1.1"
   id="svg1"
   xml:space="preserve"
   xmlns="http://www.w3.org/2000/svg"
   xmlns:svg="http://www.w3.org/2000/svg"><defs
     id="defs1" /><g
     id="layer1"
     transform="translate(-346.18861,-150.88199)"><g
       style="fill:#000000"
       id="g77"
       transform="matrix(8.8194444,0,0,8.8194444,325.79476,119.75818)"><g
         id="SVGRepo_bgCarrier"
         stroke-width="0" /><g
         id="SVGRepo_tracerCarrier"
         stroke-linecap="round"
         stroke-linejoin="round" /><g
         id="SVGRepo_iconCarrier"
         transform="translate(-0.68760053,1.5289876)"><path
           id="primary"
           style="fill:#000000"
           d="M 5.0000138,2.0000123 A 2,2 0 0 0 2.9999747,3.9999928 V 20.000012 a 2,2 0 0 0 2.0000391,1.999981 H 18.999994 a 2,2 0 0 0 1.999981,-1.999981 V 11.409993 A 2,2 0 0 0 20.409994,9.9999928 l -7.41,-7.41 a 2,2 0 0 0 -1.41,-0.5899805 z m 0,1.9999805 h 6.5899802 l 6,6 H 5.0000138 Z m 0.8285156,7.7753322 h 3.3319922 c 0.5246105,0 0.9469334,0.422323 0.9469334,0.946933 0,0.524611 -0.4223229,0.946934 -0.9469334,0.946934 H 5.8285294 c -0.5246105,0 -0.9469336,-0.422323 -0.9469336,-0.946934 0,-0.52461 0.4223231,-0.946933 0.9469336,-0.946933 z" /></g></g></g></svg>
