<?xml version="1.0" encoding="UTF-8" standalone="no"?>
<!-- Created with Inkscape (http://www.inkscape.org/) -->

<svg
   width="800mm"
   height="200mm"
   viewBox="0 0 800 200"
   version="1.1"
   id="svg1"
   xml:space="preserve"
   xmlns="http://www.w3.org/2000/svg"
   xmlns:svg="http://www.w3.org/2000/svg"><defs
     id="defs1" /><g
     id="layer1"
     transform="translate(20.10528,1.5695343)"><g
       transform="matrix(0.01444046,0,0,-0.01444046,11.655581,189.53655)"
       fill="#000000"
       stroke="none"
       id="g55"
       style="display:none"><path
         d="m 5282,12740 c -33,-33 -65,-60 -71,-60 -26,0 -8,-20 29,-31 42,-13 50,-28 24,-50 -9,-8 -13,-21 -10,-35 9,-33 -3,-54 -30,-54 -15,0 -24,-6 -24,-16 0,-11 -5,-14 -16,-10 -18,7 -105,-50 -103,-67 3,-18 -12,-92 -21,-107 -12,-19 -46,4 -58,40 -9,26 -16,30 -46,30 -19,0 -41,3 -49,6 -10,3 -17,-1 -19,-12 -2,-12 20,-41 60,-80 34,-35 58,-65 52,-69 -20,-13 -11,-55 14,-65 22,-8 24,-12 14,-38 -9,-24 -7,-35 16,-74 33,-56 30,-71 -29,-193 -60,-120 -74,-177 -55,-213 9,-14 26,-29 40,-33 24,-7 24,-7 -8,-14 -34,-8 -62,-37 -62,-65 0,-21 -47,-66 -83,-79 -42,-16 -119,-13 -145,5 -12,8 -22,25 -22,37 0,31 -11,67 -20,67 -11,0 -1,-89 16,-133 19,-51 18,-54 -16,-49 -17,2 -30,0 -30,-6 0,-6 -22,-13 -48,-17 l -49,-6 -11,-62 c -6,-34 -15,-84 -18,-112 -7,-51 -16,-65 -46,-65 -28,0 -52,34 -77,114 -17,50 -31,78 -43,82 -10,3 -25,19 -33,35 -18,34 -40,38 -48,9 -3,-11 -12,-20 -21,-20 -18,0 -21,15 -6,25 8,5 7,11 -1,21 -10,13 -15,12 -31,-3 -12,-11 -18,-26 -15,-41 4,-19 0,-22 -17,-20 -18,3 -22,-4 -28,-47 -5,-27 -12,-68 -17,-90 -11,-46 3,-131 25,-156 8,-9 32,-24 54,-34 22,-10 40,-21 40,-25 0,-19 -31,-31 -62,-26 l -33,7 27,-15 c 44,-26 88,-76 88,-101 0,-40 -23,-129 -37,-145 -11,-13 -12,-10 -7,20 4,19 11,43 15,52 5,9 9,30 9,46 0,24 -5,31 -27,35 -16,3 -36,9 -45,12 -25,10 -23,-21 2,-42 24,-21 26,-65 4,-87 -25,-25 -73,-20 -97,10 l -21,27 -17,-22 c -9,-11 -15,-30 -12,-41 4,-13 -6,-30 -31,-53 -31,-30 -36,-40 -36,-81 0,-26 5,-57 11,-69 7,-11 12,-37 13,-57 l 1,-35 70,-7 c 40,-4 82,-3 99,2 36,12 48,3 21,-16 -12,-9 -31,-13 -47,-10 -16,3 -42,9 -59,12 -34,7 -79,-11 -79,-33 0,-7 -9,-18 -20,-25 -11,-7 -20,-19 -20,-27 0,-7 -11,-24 -25,-37 -14,-13 -25,-32 -25,-44 0,-23 -44,-115 -60,-125 -5,-3 -10,-14 -10,-23 0,-10 -10,-22 -22,-27 -13,-6 -25,-21 -28,-35 -7,-35 -21,-55 -47,-69 -23,-12 -23,-11 -23,54 0,62 3,69 45,127 25,34 45,66 45,70 0,5 -7,20 -16,33 -8,13 -15,32 -14,42 3,24 -10,63 -21,63 -17,0 -160,-155 -157,-170 2,-10 15,-15 36,-15 48,0 39,-18 -28,-59 -50,-31 -60,-41 -54,-58 6,-21 0,-28 -83,-83 -66,-43 -91,-79 -75,-106 7,-10 12,-27 12,-37 0,-10 11,-24 24,-30 21,-9 56,-83 56,-116 0,-12 -92,-53 -130,-58 -44,-5 -37,29 16,78 26,24 44,48 40,52 -4,4 -26,16 -49,27 -28,14 -44,29 -50,50 -6,17 -11,31 -12,32 -4,6 -85,-30 -85,-37 0,-4 -15,-14 -32,-21 -18,-7 -60,-40 -93,-72 -33,-33 -74,-66 -92,-73 -18,-8 -36,-20 -40,-27 -4,-8 -41,-35 -81,-61 -62,-42 -120,-98 -146,-144 -5,-8 -1,-21 8,-31 15,-17 15,-19 1,-31 -14,-11 -20,-9 -45,18 -25,28 -36,32 -78,32 -39,0 -53,-5 -78,-28 -16,-16 -39,-34 -52,-41 -16,-9 -21,-18 -17,-32 9,-28 -4,-23 -15,6 -5,14 -18,28 -27,32 -10,4 -29,15 -43,25 -29,23 -91,16 -129,-13 -13,-11 -38,-19 -56,-19 -21,0 -40,-9 -56,-26 -24,-25 -29,-53 -30,-164 0,-33 -1,-34 -15,-16 -8,11 -14,28 -14,39 0,16 -5,18 -28,12 -15,-4 -52,-11 -82,-15 -30,-5 -63,-11 -73,-15 -16,-7 -16,-9 -2,-31 8,-13 15,-29 15,-36 -1,-12 -63,-58 -78,-58 -4,0 -6,18 -4,41 3,22 -1,46 -7,52 -6,6 -11,21 -11,33 0,32 -17,39 -47,17 -14,-10 -40,-27 -59,-39 -18,-11 -62,-50 -98,-87 -43,-45 -71,-67 -87,-67 -25,-1 -79,-41 -79,-60 0,-16 -14,-12 -28,10 -10,17 -21,20 -70,18 -31,-2 -103,1 -158,5 -101,8 -101,8 -108,-15 -12,-48 -6,-217 10,-257 14,-37 14,-42 0,-63 -10,-14 -16,-43 -16,-78 0,-48 -4,-60 -26,-81 -14,-13 -35,-39 -46,-59 -65,-109 -156,-250 -185,-286 -18,-23 -33,-53 -33,-67 0,-16 -17,-45 -45,-78 -25,-29 -50,-71 -56,-94 -6,-22 -20,-54 -30,-72 -18,-28 -19,-42 -12,-139 8,-108 8,-109 40,-129 l 31,-20 -1,-170 c -1,-111 3,-194 12,-238 11,-55 11,-79 1,-126 -13,-64 -4,-94 42,-137 34,-32 152,-297 150,-338 -1,-18 -6,-53 -11,-78 -7,-30 -7,-66 -1,-105 14,-83 90,-244 145,-305 37,-41 45,-57 45,-88 0,-21 -7,-43 -15,-50 -8,-7 -15,-27 -15,-45 0,-24 -7,-37 -25,-49 -27,-17 -33,-54 -13,-74 6,-6 10,-35 9,-65 -1,-46 4,-61 37,-113 30,-47 37,-65 32,-89 -9,-42 -37,-95 -70,-130 -34,-38 -106,-176 -120,-232 -8,-32 -22,-51 -58,-80 -64,-52 -70,-60 -82,-123 -6,-30 -13,-66 -16,-78 -7,-34 -49,-72 -79,-72 -19,0 -25,-5 -25,-21 0,-12 -16,-46 -35,-77 -28,-47 -36,-73 -45,-147 -11,-86 -50,-226 -71,-251 -5,-7 -46,-15 -89,-19 -44,-4 -99,-13 -122,-19 -37,-12 -43,-17 -55,-59 -7,-25 -22,-52 -33,-60 -19,-13 -19,-17 -6,-48 7,-19 16,-62 19,-96 6,-53 4,-64 -12,-75 -10,-7 -25,-27 -35,-45 -9,-18 -25,-37 -35,-43 -14,-7 -21,-26 -26,-72 -7,-56 -9,-60 -21,-43 -8,10 -14,31 -14,46 0,15 -4,31 -10,34 -6,4 -10,-14 -10,-47 0,-29 -9,-77 -20,-106 -26,-68 -30,-268 -5,-259 8,4 17,2 20,-3 4,-6 -1,-10 -9,-10 -22,0 -29,-18 -32,-74 -1,-32 3,-58 14,-74 10,-16 17,-49 17,-91 1,-36 11,-97 23,-136 12,-38 31,-104 43,-145 27,-93 43,-125 85,-173 27,-29 34,-46 34,-80 l 1,-42 20,25 21,25 24,-28 c 17,-20 24,-40 24,-71 0,-23 4,-46 9,-52 4,-5 14,-38 20,-74 15,-80 30,-120 46,-120 6,0 29,-15 50,-33 l 38,-33 -9,-69 c -9,-66 -10,-69 -44,-80 -27,-9 -36,-19 -43,-46 -18,-71 -19,-119 -3,-143 13,-20 15,-60 14,-245 -1,-121 1,-224 5,-228 4,-3 7,-28 7,-54 0,-41 4,-51 26,-66 15,-9 33,-32 40,-50 8,-18 22,-33 30,-33 19,0 99,-82 121,-124 11,-21 13,-43 9,-77 -6,-42 -3,-54 25,-99 42,-68 70,-146 64,-173 -4,-15 4,-35 25,-64 30,-40 34,-43 69,-37 34,5 43,2 85,-35 26,-23 53,-41 61,-41 21,0 45,-41 45,-77 0,-29 3,-33 26,-33 14,0 62,-6 107,-14 45,-8 112,-20 149,-26 83,-13 157,-36 183,-58 12,-9 35,-37 52,-62 24,-35 44,-51 89,-69 75,-31 84,-38 84,-68 0,-25 0,-25 67,-18 38,3 119,8 180,10 130,5 140,9 254,99 44,35 92,69 107,77 15,7 53,30 84,51 79,52 344,153 441,168 78,12 182,5 193,-11 7,-13 75,0 95,17 9,8 18,12 21,9 3,-3 13,4 23,15 10,11 22,20 27,20 5,0 24,11 42,25 18,14 44,25 58,25 27,0 58,27 58,51 0,24 22,39 55,39 23,0 35,7 47,28 10,16 15,38 12,49 -7,27 23,90 48,104 16,8 19,18 14,40 -3,15 -1,31 4,34 11,7 61,158 94,287 14,54 36,119 50,145 13,27 29,69 36,93 6,25 25,66 40,92 78,127 131,267 137,363 2,40 22,128 44,205 65,219 75,256 119,450 23,102 48,205 55,230 8,25 16,90 20,146 3,55 10,116 15,135 27,103 50,171 78,229 17,36 52,121 77,190 25,69 64,170 85,225 21,55 41,116 45,135 4,19 18,56 31,83 14,26 32,82 40,125 18,88 43,179 85,304 31,96 66,228 79,298 35,199 137,498 237,696 64,127 66,135 74,230 13,164 41,267 113,414 27,57 36,87 36,128 0,33 7,67 20,92 31,61 156,402 197,535 8,28 28,73 43,100 16,29 37,92 49,150 26,123 40,179 107,420 l 53,190 -19,30 c -11,18 -20,56 -23,93 -2,34 -9,68 -15,74 -7,7 -12,19 -12,28 0,9 -7,25 -15,36 -23,31 -17,68 24,146 22,41 48,101 59,133 11,33 34,90 51,127 33,72 30,70 149,97 24,5 46,12 49,15 3,3 -11,24 -31,46 -27,30 -36,49 -34,68 2,18 8,26 18,25 9,-2 24,13 35,35 11,20 27,48 37,61 10,13 18,35 18,50 1,14 7,37 15,51 19,34 19,39 -9,49 -34,14 -40,69 -16,140 l 20,55 -22,23 c -13,12 -38,24 -56,26 -42,7 -62,23 -62,53 0,12 -4,26 -10,29 -17,10 -11,68 10,100 23,35 25,63 5,89 -8,11 -15,30 -15,43 0,13 -9,44 -20,68 -15,32 -19,55 -14,83 4,28 2,41 -10,51 -46,38 21,137 88,133 19,-1 37,2 41,8 8,14 82,13 91,-1 4,-6 6,-36 6,-65 0,-49 3,-57 30,-77 28,-20 30,-25 25,-69 -6,-44 -3,-50 25,-77 23,-22 31,-38 32,-69 3,-48 37,-92 71,-92 27,0 45,-18 45,-47 0,-28 6,-28 48,-3 21,13 35,31 39,51 4,20 14,34 30,40 19,7 23,14 18,30 -5,15 -2,22 14,26 16,4 21,13 21,42 0,40 49,185 79,236 23,39 61,173 61,214 0,16 -7,34 -15,41 -8,7 -15,19 -15,26 0,8 -9,23 -20,34 -11,11 -20,27 -20,36 0,9 -16,34 -35,56 -20,21 -47,63 -62,94 -14,30 -29,57 -34,60 -5,3 -9,20 -9,37 -1,18 -7,43 -15,57 -8,14 -15,39 -15,55 0,17 -9,58 -20,92 -21,67 -27,173 -15,266 7,52 5,60 -15,82 -21,23 -22,28 -13,102 8,62 7,82 -3,98 -10,13 -14,51 -14,115 0,94 -8,143 -35,210 -7,19 -28,79 -45,134 -24,77 -29,109 -24,146 7,54 -7,89 -55,134 -29,28 -31,34 -31,106 0,42 -3,80 -7,84 -5,4 -13,24 -18,44 -6,20 -17,38 -25,38 -8,1 -19,2 -24,3 -5,0 -3,7 3,14 13,16 5,27 -20,27 -19,0 -29,19 -29,55 0,13 -5,27 -11,30 -6,4 -8,13 -5,21 3,9 -1,14 -14,14 -10,0 -22,5 -25,10 -12,19 -33,10 -40,-17 l -7,-28 -10,25 c -5,14 -7,40 -3,58 6,30 4,32 -24,32 -35,0 -48,15 -30,36 9,11 8,18 -5,32 -18,21 -21,39 -6,44 14,4 -37,150 -58,166 -10,8 -29,11 -45,8 -24,-5 -30,-1 -44,32 -22,48 -42,72 -61,72 -11,0 -13,-8 -8,-30 7,-38 -16,-41 -32,-5 -6,13 -23,27 -37,31 -23,6 -26,10 -20,33 9,33 12,36 28,23 7,-6 23,-9 35,-5 12,3 28,0 36,-6 26,-22 25,4 -3,87 -26,75 -61,132 -82,132 -5,0 -35,-27 -67,-60 z"
         id="path47" /><path
         d="m 4769,11971 c -11,-24 -18,-29 -34,-25 -20,7 -20,6 -1,-15 26,-29 31,-27 45,20 15,50 8,62 -10,20 z"
         id="path48" /><path
         d="m 4455,11660 c -3,-6 -3,-20 0,-31 7,-20 4,-21 -35,-14 -31,5 -41,4 -35,-4 4,-7 2,-17 -4,-24 -7,-9 -3,-27 12,-60 25,-54 44,-63 110,-53 42,7 43,7 42,44 -2,41 -23,120 -38,140 -11,15 -43,16 -52,2 z"
         id="path49" /><path
         d="m 4522,11423 c 4,-22 43,-25 43,-3 0,8 -11,16 -23,18 -19,3 -23,0 -20,-15 z"
         id="path50" /><path
         d="m 4036,10935 c -8,-33 -1,-45 29,-45 h 24 l -20,35 c -12,19 -22,35 -24,35 -2,0 -6,-11 -9,-25 z"
         id="path51" /><path
         d="m 3990,10840 c 0,-5 5,-10 10,-10 6,0 10,5 10,10 0,6 -4,10 -10,10 -5,0 -10,-4 -10,-10 z"
         id="path52" /><path
         d="m 4046,10801 c -4,-5 3,-15 15,-21 28,-15 34,-7 10,14 -12,11 -21,13 -25,7 z"
         id="path53" /><path
         d="m 3854,10466 c -3,-8 -4,-25 -2,-38 2,-17 8,-22 23,-20 33,6 38,18 20,46 -19,29 -33,33 -41,12 z"
         id="path54" /><path
         d="m 5986,8441 c -9,-10 -14,-25 -11,-33 3,-8 -5,-24 -20,-36 -14,-12 -25,-31 -25,-42 0,-11 -7,-23 -15,-27 -18,-6 -48,-60 -41,-71 5,-9 -32,-122 -46,-140 -6,-7 -8,-15 -4,-19 7,-8 2,-14 59,72 25,39 58,101 72,138 14,38 34,86 45,107 32,62 23,92 -14,51 z"
         id="path55" /></g><path
       id="rect63"
       style="fill:#ffffff;fill-opacity:1;stroke-width:0.0829382"
       d="M 144.55707,5.7521297 34.890902,61.708767 c -0.03862,0.01971 -0.05404,0.06668 -0.03434,0.105301 l 17.541077,34.377506 c 0.01971,0.0385 0.06668,0.05373 0.10529,0.03405 L 75.753454,84.362198 c -0.02654,-0.396948 -0.0423,-0.866988 -0.03693,-1.463078 l 0.0091,-1.538892 -0.280565,-0.181102 c -0.289703,-0.181063 -0.289782,-0.190193 -0.362207,-1.167936 -0.06338,-0.878159 -0.05409,-1.004837 0.108854,-1.258325 0.09053,-0.162958 0.217175,-0.452673 0.271494,-0.651843 0.05431,-0.208225 0.280693,-0.588544 0.507022,-0.851087 0.25349,-0.298755 0.407241,-0.561095 0.407241,-0.705945 0,-0.126745 0.135749,-0.398586 0.298704,-0.60681 0.262544,-0.325916 1.086505,-1.602425 1.674963,-2.589222 0.09958,-0.181064 0.289564,-0.416223 0.41631,-0.533915 0.199169,-0.190115 0.235531,-0.29893 0.235531,-0.733483 0,-0.316862 0.05429,-0.579201 0.144817,-0.705946 0.126746,-0.190117 0.126746,-0.235555 0,-0.570522 -0.14485,-0.362128 -0.199029,-1.892248 -0.09038,-2.326802 0.06338,-0.208223 0.06339,-0.208173 0.977761,-0.135748 0.497925,0.03621 1.149707,0.06347 1.430357,0.04535 0.443607,-0.01812 0.543168,0.0091 0.633699,0.16296 0.126745,0.19917 0.25335,0.23524 0.25335,0.09038 0,-0.172011 0.489011,-0.533932 0.71534,-0.542985 0.144851,0 0.398301,-0.199091 0.787589,-0.606484 0.325914,-0.334968 0.724091,-0.688327 0.887049,-0.787913 0.17201,-0.108638 0.407493,-0.262276 0.534238,-0.35281 0.271595,-0.199168 0.425705,-0.135812 0.425705,0.153889 0,0.108638 0.04514,0.244389 0.09946,0.298707 0.05432,0.05431 0.09066,0.271569 0.06349,0.470739 -0.01811,0.208222 -2.51e-4,0.371276 0.03596,0.371276 0.135799,0 0.697219,-0.416528 0.706272,-0.525165 0,-0.06337 -0.06333,-0.208229 -0.135747,-0.32592 -0.126744,-0.199171 -0.126708,-0.217192 0.01813,-0.280564 0.09052,-0.03621 0.389318,-0.0908 0.660915,-0.136071 0.271594,-0.03621 0.606432,-0.09953 0.742228,-0.135746 0.208224,-0.05431 0.253352,-0.03599 0.253352,0.108851 0,0.09958 0.05457,0.253227 0.126998,0.352811 0.126743,0.162959 0.135746,0.153939 0.135746,-0.144817 0.0091,-1.004905 0.05421,-1.258133 0.271492,-1.484461 0.144851,-0.153905 0.316908,-0.235532 0.507026,-0.235532 0.162957,0 0.389331,-0.07243 0.507022,-0.172031 0.344023,-0.262543 0.905395,-0.325826 1.167937,-0.117604 0.126745,0.09053 0.298564,0.189924 0.389096,0.226136 0.08149,0.03621 0.199337,0.163214 0.244603,0.28996 0.09958,0.262542 0.217224,0.307591 0.135746,0.05409 -0.03621,-0.126745 0.0091,-0.208155 0.153889,-0.289635 0.11769,-0.06337 0.325887,-0.226427 0.470739,-0.371278 0.22633,-0.208223 0.353194,-0.253349 0.706269,-0.253349 0.380233,0 0.479616,0.03615 0.705945,0.289635 0.226331,0.244436 0.280818,0.262545 0.407564,0.162961 0.126744,-0.108638 0.126727,-0.12666 -0.0091,-0.280564 -0.08149,-0.09053 -0.117835,-0.20814 -0.07258,-0.280564 0.235383,-0.416448 0.760528,-0.92345 1.321827,-1.303684 0.362127,-0.235383 0.697271,-0.479954 0.733483,-0.552381 0.03621,-0.06337 0.198925,-0.171853 0.361882,-0.244278 0.162958,-0.06337 0.53419,-0.362158 0.832948,-0.660913 0.298752,-0.289702 0.679057,-0.588469 0.842022,-0.651841 0.153902,-0.06337 0.289632,-0.153961 0.289632,-0.190175 0,-0.06337 0.733205,-0.389308 0.769445,-0.334992 0.0095,0.0091 0.05458,0.135731 0.108864,0.289635 0.0543,0.190117 0.199102,0.325852 0.452588,0.452596 0.20823,0.09958 0.407291,0.20839 0.443521,0.244603 0.0362,0.03621 -0.12682,0.253462 -0.362204,0.470738 -0.479813,0.443606 -0.543157,0.751535 -0.144812,0.706271 0.344017,-0.04528 1.177006,-0.41653 1.177006,-0.525168 0,-0.298754 -0.3169,-0.968854 -0.50702,-1.050333 -0.1177,-0.05431 -0.21707,-0.180961 -0.21707,-0.271493 0,-0.09053 -0.0455,-0.244458 -0.108861,-0.334991 -0.144849,-0.244437 0.08154,-0.570333 0.679061,-0.959621 0.75143,-0.497924 0.8056,-0.561183 0.75131,-0.751301 -0.0544,-0.153905 0.0362,-0.244518 0.48888,-0.525167 0.60656,-0.371181 0.68821,-0.534237 0.25367,-0.534237 -0.19012,0 -0.3078,-0.04522 -0.32592,-0.135748 -0.0272,-0.135798 1.26737,-1.538889 1.42127,-1.538889 0.0996,0 0.21734,0.352922 0.19018,0.570201 -0.01,0.09053 0.0543,0.262656 0.12669,0.380348 0.0815,0.117691 0.14481,0.253443 0.14481,0.298706 0,0.0362 -0.18091,0.325889 -0.40724,0.633698 -0.38023,0.525086 -0.40756,0.588499 -0.40756,1.149793 0,0.588458 9e-5,0.597522 0.20831,0.488884 0.23538,-0.126745 0.36201,-0.307766 0.42539,-0.624629 0.0271,-0.126749 0.13598,-0.26253 0.25368,-0.316849 0.10864,-0.04528 0.19891,-0.154071 0.19891,-0.244602 0,-0.08149 0.0455,-0.181158 0.0907,-0.208318 0.14486,-0.09053 0.54331,-0.923428 0.54331,-1.131651 0,-0.108638 0.0993,-0.280475 0.22614,-0.398168 0.12676,-0.117691 0.22646,-0.271619 0.22646,-0.334992 0,-0.07242 0.0814,-0.18123 0.1811,-0.244601 0.0996,-0.06338 0.18078,-0.162763 0.18078,-0.226137 0,-0.19917 0.40754,-0.362079 0.71535,-0.298707 0.1539,0.02716 0.38938,0.08136 0.53424,0.108536 0.14486,0.02716 0.31675,-0.0088 0.42537,-0.09038 0.24444,-0.172012 0.13575,-0.25378 -0.19017,-0.145141 -0.1539,0.04527 -0.53399,0.05434 -0.89612,0.01813 l -0.6337,-0.06317 -0.009,-0.316851 c -0.009,-0.181064 -0.0543,-0.416508 -0.1176,-0.516093 -0.0544,-0.108638 -0.0999,-0.389245 -0.0999,-0.624627 0,-0.371182 0.0453,-0.461889 0.32592,-0.733485 0.22635,-0.208224 0.31682,-0.362118 0.28058,-0.479809 -0.0271,-0.09958 0.0273,-0.27137 0.10888,-0.370954 l 0.15388,-0.199246 0.19017,0.244279 c 0.21729,0.271596 0.65167,0.317042 0.87798,0.09072 0.19917,-0.19917 0.18101,-0.597471 -0.0363,-0.787589 -0.2263,-0.190117 -0.24446,-0.47088 -0.0181,-0.380348 0.0815,0.02715 0.26272,0.08136 0.40756,0.108535 0.19914,0.03621 0.24429,0.09957 0.24429,0.31685 0,0.144851 -0.036,0.335155 -0.0814,0.416635 -0.0363,0.08149 -0.0994,0.298727 -0.13576,0.470739 -0.0453,0.271594 -0.0364,0.298793 0.0631,0.181102 0.12674,-0.144851 0.335,-0.950626 0.335,-1.312754 0,-0.226331 -0.39832,-0.67888 -0.79666,-0.914263 l -0.24428,-0.136071 0.2987,0.06349 c 0.28066,0.04527 0.56114,-0.06352 0.56114,-0.235529 0,-0.03621 -0.16272,-0.135604 -0.36189,-0.226137 -0.19916,-0.09052 -0.41643,-0.226288 -0.48886,-0.307767 -0.1992,-0.22633 -0.32605,-0.99609 -0.22646,-1.412537 0.0453,-0.199172 0.10865,-0.570367 0.15387,-0.814804 0.0544,-0.38929 0.0907,-0.45254 0.2537,-0.42538 0.15387,0.01811 0.19011,-0.0091 0.15387,-0.181105 -0.027,-0.135797 0.0271,-0.271367 0.13576,-0.370953 0.14483,-0.135797 0.19002,-0.144906 0.28056,-0.02721 0.0724,0.09053 0.0815,0.14491 0.009,0.190175 -0.13582,0.09052 -0.10853,0.226135 0.0545,0.226135 0.0815,0 0.16303,-0.08152 0.19017,-0.181104 0.0724,-0.262543 0.2715,-0.226166 0.43446,0.08164 0.0724,0.14485 0.20817,0.28969 0.2987,0.316849 0.10866,0.03621 0.23551,0.289571 0.38943,0.742231 0.22633,0.724255 0.44338,1.03219 0.69687,1.03219 0.2716,0 0.35326,-0.126952 0.41664,-0.588665 0.0271,-0.253489 0.10864,-0.705915 0.16295,-1.013724 l 0.0994,-0.561452 0.44353,-0.05409 c 0.23537,-0.03621 0.43477,-0.09989 0.43477,-0.154214 0,-0.05429 0.11759,-0.07221 0.27149,-0.05409 0.30781,0.04527 0.31683,0.01818 0.14482,-0.443524 -0.15392,-0.39834 -0.24441,-1.204222 -0.14482,-1.204222 0.0815,0 0.1811,0.325834 0.1811,0.606485 0,0.108637 0.0906,0.262566 0.19926,0.334992 0.23537,0.16296 0.93219,0.190208 1.31242,0.04535 0.32591,-0.117691 0.75164,-0.525222 0.75164,-0.715339 0,-0.25349 0.25331,-0.515918 0.56112,-0.588344 0.28971,-0.06337 0.28983,-0.0633 0.0726,-0.126673 -0.12676,-0.03621 -0.28073,-0.171963 -0.36221,-0.298707 -0.17202,-0.325916 -0.0453,-0.841927 0.49794,-1.928311 0.53414,-1.10448 0.56117,-1.240551 0.26243,-1.74753 -0.20822,-0.353076 -0.22631,-0.452708 -0.14483,-0.669985 0.0905,-0.235384 0.0725,-0.271315 -0.12667,-0.343741 -0.22632,-0.09053 -0.30773,-0.470973 -0.12666,-0.588664 0.0544,-0.03621 -0.16293,-0.307766 -0.47074,-0.624629 -0.36214,-0.353071 -0.56143,-0.615449 -0.54331,-0.724087 0.0181,-0.09958 0.0814,-0.136015 0.17202,-0.108852 0.0724,0.02715 0.27151,0.05443 0.44353,0.05443 0.2716,0 0.33515,0.03611 0.41664,0.271493 0.10865,0.325913 0.41653,0.534217 0.52515,0.362206 0.0814,-0.135798 0.217,-0.805733 0.18986,-0.968692 -0.018,-0.153902 0.76977,-0.669857 0.93273,-0.606484 0.0995,0.03621 0.14482,0.0088 0.14482,-0.09072 0,-0.09053 0.0814,-0.144817 0.21706,-0.144817 0.24442,0 0.35329,-0.190126 0.27182,-0.488881 -0.0271,-0.126746 0.009,-0.244423 0.0903,-0.31685 0.23539,-0.19917 0.16286,-0.334905 -0.21738,-0.452596 -0.33496,-0.09958 -0.4978,-0.280564 -0.26242,-0.280564 0.0544,0 0.34402,-0.244553 0.64276,-0.543308 0.28972,-0.298756 0.56123,-0.543309 0.6065,-0.543309 0.19009,0 0.50717,0.516161 0.74254,1.19515 0.2535,0.751416 0.26261,0.986758 0.0272,0.787587 -0.0724,-0.05429 -0.21727,-0.08127 -0.32593,-0.05409 -0.10864,0.03621 -0.25347,0.0089 -0.31685,-0.04535 -0.14484,-0.11769 -0.17219,-0.09043 -0.25366,0.208318 -0.0544,0.208224 -0.0271,0.244387 0.1811,0.298706 0.12674,0.03621 0.2807,0.162873 0.33501,0.280564 0.14483,0.325915 0.353,0.298666 0.28962,-0.04535 -0.0453,-0.19917 -0.0271,-0.271492 0.0726,-0.271492 0.17201,0 0.35288,0.217287 0.55205,0.651839 0.12674,0.298757 0.18121,0.334902 0.39849,0.289637 0.14484,-0.02716 0.31671,1.46e-4 0.40725,0.07257 0.19009,0.144851 0.65189,1.466392 0.52516,1.502604 -0.1358,0.04527 -0.10854,0.208373 0.0545,0.39849 0.11766,0.126745 0.1265,0.190051 0.045,0.289636 -0.16298,0.190117 -0.045,0.325921 0.27182,0.325921 0.25348,0 0.27134,0.01804 0.21706,0.289635 -0.0363,0.162958 -0.018,0.398422 0.0272,0.525167 l 0.0908,0.22646 0.0631,-0.253676 c 0.0633,-0.244435 0.25357,-0.325899 0.36219,-0.153887 0.0271,0.04528 0.13594,0.09072 0.22647,0.09072 0.1177,0 0.15382,0.0452 0.12666,0.126675 -0.0271,0.07242 -0.009,0.153963 0.0455,0.190174 0.0544,0.02716 0.0994,0.153802 0.0994,0.271493 0,0.325915 0.0903,0.497953 0.26242,0.497953 0.2263,0 0.29878,0.09943 0.1811,0.244278 -0.0543,0.06338 -0.0725,0.126999 -0.0272,0.126999 0.0453,0.0091 0.14496,0.01785 0.21739,0.02689 0.0724,0 0.17217,0.162999 0.22646,0.344062 0.0453,0.181066 0.1177,0.362281 0.16295,0.398493 0.0362,0.03621 0.0631,0.38014 0.0631,0.760372 0,0.651832 0.0184,0.706132 0.28089,0.959622 0.43456,0.407393 0.561,0.72442 0.49762,1.213293 -0.0453,0.334967 1.2e-4,0.624405 0.21739,1.3215 0.15391,0.497927 0.34418,1.041285 0.40756,1.213295 0.24444,0.606564 0.31685,1.050097 0.31685,1.901095 0,0.579405 0.0362,0.923572 0.12668,1.041261 0.0904,0.144851 0.0996,0.325752 0.0272,0.887049 -0.0815,0.669937 -0.0725,0.715435 0.11759,0.923659 0.18107,0.199171 0.19912,0.271465 0.13575,0.74223 -0.10864,0.84194 -0.0544,1.801555 0.13575,2.40812 0.0995,0.30781 0.1811,0.679042 0.1811,0.832945 0,0.144851 0.0633,0.371209 0.13574,0.497952 0.0724,0.126746 0.12673,0.353138 0.13577,0.516096 0,0.153904 0.0364,0.307833 0.0816,0.334992 0.0453,0.02716 0.18103,0.27139 0.30777,0.542985 0.0512,0.105872 0.12598,0.227973 0.19892,0.346656 l 35.77289,-18.252856 c 0.0384,-0.01969 0.0537,-0.06668 0.0342,-0.1053 L 144.66235,5.7861478 c -0.0197,-0.038583 -0.0667,-0.053706 -0.10523,-0.034005 z M 112.63336,40.516468 c 0.039,-0.0041 0.0285,0.143328 -0.0522,0.4121 -0.12673,0.425499 -0.17185,0.443646 -0.40724,0.181102 -0.172,-0.190116 -0.172,-0.199119 0.009,-0.135746 0.14487,0.03621 0.2082,-0.0092 0.3078,-0.22646 0.0662,-0.154475 0.11591,-0.228175 0.14255,-0.230996 z m -2.79203,2.957261 c 0.10545,-0.0054 0.22161,0.03117 0.27765,0.107564 0.1358,0.181064 0.32562,0.896217 0.34374,1.267396 0.009,0.33497 2.1e-4,0.334797 -0.38002,0.398168 -0.5975,0.09053 -0.76958,0.0091 -0.99591,-0.479808 -0.1358,-0.298756 -0.1719,-0.461505 -0.10854,-0.542985 0.0544,-0.06337 0.0722,-0.154016 0.0358,-0.217389 -0.0544,-0.07242 0.0362,-0.08155 0.31685,-0.03629 0.35309,0.06337 0.38022,0.05439 0.31685,-0.126676 -0.0271,-0.09958 -0.0271,-0.226247 0,-0.280565 0.0357,-0.05544 0.11137,-0.08522 0.19341,-0.08942 z m 0.48953,2.089651 c 0.0271,-8.41e-4 0.062,0.0026 0.10503,0.0094 0.10865,0.01811 0.20798,0.09053 0.20798,0.16296 0,0.19917 -0.35286,0.171956 -0.38909,-0.02721 -0.0203,-0.101854 -0.006,-0.142571 0.0761,-0.145142 z m -4.39475,4.336754 c 0.0181,0 0.10876,0.14484 0.2174,0.316851 l 0.18109,0.316849 h -0.21738 c -0.27159,0 -0.33485,-0.10848 -0.26243,-0.40724 0.0271,-0.126744 0.0632,-0.22646 0.0814,-0.22646 z m -0.40723,0.995906 c 0.0544,0 0.0903,0.03638 0.0903,0.09072 0,0.04527 -0.0362,0.09038 -0.0903,0.09038 -0.0453,0 -0.0907,-0.04512 -0.0907,-0.09038 0,-0.05431 0.0455,-0.09072 0.0907,-0.09072 z m 0.46911,0.413718 c 0.0427,-0.0023 0.10233,0.02795 0.17367,0.09331 0.21726,0.190116 0.16276,0.262472 -0.0908,0.126674 -0.10865,-0.05432 -0.17198,-0.144587 -0.13575,-0.18985 0.0125,-0.01866 0.0304,-0.02893 0.0528,-0.03014 z m 38.55908,1.884249 -17.11084,8.730853 c -0.0977,0.315158 -0.20428,0.641448 -0.28932,0.785644 -0.27158,0.461713 -0.71502,1.774499 -0.71502,2.136628 0,0.262542 -0.0453,0.344136 -0.19016,0.380348 -0.14487,0.03621 -0.17227,0.09941 -0.127,0.235208 0.0453,0.14485 0.009,0.208119 -0.16264,0.271491 -0.14485,0.05431 -0.23559,0.181143 -0.27182,0.362208 -0.0362,0.181065 -0.16301,0.343974 -0.35312,0.461666 -0.38022,0.22633 -0.43446,0.2266 -0.43446,-0.02689 0,-0.262541 -0.16281,-0.425705 -0.40724,-0.425705 -0.30782,0 -0.61563,-0.398392 -0.64278,-0.832945 -0.009,-0.280649 -0.0817,-0.425458 -0.28995,-0.624627 -0.23122,-0.222994 -0.26198,-0.313822 -0.22646,-0.625924 l -2.15056,1.09731 c 1.3e-4,0.0037 0.006,0.01415 0.006,0.01749 0,0.117692 0.0633,0.289835 0.13576,0.38942 0.18104,0.235383 0.16286,0.48887 -0.0453,0.805731 -0.19012,0.289701 -0.24428,0.814659 -0.0903,0.905191 0.0544,0.02716 0.0903,0.154105 0.0903,0.262744 0,0.271596 0.18123,0.416439 0.56144,0.479812 0.16296,0.01812 0.38935,0.126567 0.50702,0.235207 l 0.19927,0.208316 -0.18111,0.497953 c -0.21729,0.642778 -0.163,1.140652 0.14482,1.267397 0.25348,0.09053 0.25333,0.135716 0.0812,0.443524 -0.0724,0.126745 -0.12671,0.334924 -0.13574,0.461667 0,0.135798 -0.0724,0.335228 -0.16295,0.452921 -0.0905,0.11769 -0.23542,0.370993 -0.335,0.552056 -0.0996,0.19917 -0.23538,0.334955 -0.31685,0.316849 -0.0904,-0.0091 -0.14485,0.06349 -0.16297,0.22646 -0.0181,0.172011 0.0634,0.343961 0.30779,0.615555 0.18106,0.199172 0.30804,0.389152 0.28087,0.41631 -0.0271,0.02715 -0.22656,0.09081 -0.44384,0.136071 -1.07733,0.244437 -1.04996,0.226149 -1.34871,0.877978 -0.15391,0.334969 -0.36209,0.851039 -0.46167,1.149793 -0.0995,0.289702 -0.33506,0.833041 -0.53424,1.204224 -0.37118,0.706147 -0.42561,1.040852 -0.21739,1.321501 0.0724,0.09958 0.13575,0.244441 0.13575,0.32592 0,0.08149 0.0455,0.1903 0.10888,0.253674 0.0544,0.05431 0.11763,0.362174 0.13573,0.669984 0.0271,0.334967 0.10877,0.678734 0.20833,0.841693 l 0.1717,0.271816 -0.4798,1.719992 c -0.60656,2.181819 -0.7333,2.688974 -0.96869,3.802519 -0.10864,0.525085 -0.29867,1.095241 -0.44352,1.357785 -0.1358,0.244435 -0.31667,0.652026 -0.3891,0.905515 -0.37119,1.204074 -1.50285,4.291211 -1.78349,4.843458 -0.1177,0.226336 -0.18111,0.533857 -0.18111,0.832618 0,0.371186 -0.0815,0.642835 -0.32592,1.15887 -0.65182,1.330821 -0.90543,2.263359 -1.02311,3.748082 -0.0724,0.860043 -0.0904,0.932442 -0.66998,2.082182 -0.90533,1.79253 -1.82852,4.49944 -2.14539,6.30103 -0.11769,0.63372 -0.43469,1.82896 -0.71534,2.69809 -0.38023,1.13163 -0.60648,1.95549 -0.76945,2.75218 -0.0724,0.38927 -0.23545,0.89627 -0.36219,1.13164 -0.0949,0.1971 -0.17168,0.42395 -0.22614,0.60585 l 52.82838,-26.955844 c 0.0386,-0.01969 0.0536,-0.06669 0.0342,-0.105301 l -17.54092,-34.37718 c -0.0197,-0.03859 -0.0667,-0.0537 -0.10525,-0.03402 z m -40.23534,1.058757 c 0.0683,-0.0037 0.15447,0.07252 0.25659,0.228403 0.16297,0.25349 0.11765,0.362317 -0.1811,0.416635 -0.1358,0.01812 -0.1902,-0.02719 -0.20832,-0.181102 -0.0181,-0.117691 -0.008,-0.271639 0.0181,-0.344064 0.0294,-0.07722 0.0678,-0.117364 0.11468,-0.119872 z m 19.42306,18.282014 c 0.11348,-0.0026 0.0896,0.246187 -0.10956,0.632078 -0.0996,0.190118 -0.28081,0.62467 -0.40755,0.968693 -0.12676,0.334967 -0.42553,0.896503 -0.65185,1.249579 -0.51605,0.778573 -0.47056,0.724265 -0.53392,0.65184 -0.0363,-0.03621 -0.018,-0.10866 0.0362,-0.172031 0.12675,-0.162957 0.46158,-1.18592 0.41632,-1.267398 -0.0635,-0.09958 0.20832,-0.588453 0.37129,-0.64277 0.0724,-0.03621 0.13574,-0.145017 0.13574,-0.244602 0,-0.09958 0.0993,-0.271711 0.22613,-0.38035 0.13578,-0.108637 0.20825,-0.253495 0.1811,-0.32592 -0.0271,-0.07242 0.0183,-0.208175 0.0999,-0.298707 0.10469,-0.115994 0.18457,-0.169158 0.23616,-0.170412 z M 76.514477,87.91234 34.890902,109.15065 c -0.03862,0.0197 -0.05404,0.0668 -0.03434,0.10523 l 17.541076,34.37718 c 0.01969,0.0386 0.06668,0.0539 0.10529,0.0343 l 20.269938,-10.3426 c -0.01814,-0.0863 -0.04136,-0.14367 -0.07094,-0.18919 -0.144849,-0.21729 -0.135741,-0.65185 0.02721,-1.2946 0.06337,-0.24445 0.144661,-0.33518 0.389096,-0.41664 0.307809,-0.0996 0.317013,-0.12659 0.398493,-0.7241 l 0.08132,-0.62495 -0.343739,-0.2987 c -0.190118,-0.16297 -0.398603,-0.29871 -0.45292,-0.29871 -0.144851,0 -0.280513,-0.36205 -0.416312,-1.08631 -0.05431,-0.3259 -0.144891,-0.62472 -0.1811,-0.66997 -0.04527,-0.0544 -0.08133,-0.2625 -0.08133,-0.47072 0,-0.28066 -0.06348,-0.46172 -0.217389,-0.64278 l -0.217388,-0.25368 -0.190175,0.22646 -0.18078,0.22646 -0.0091,-0.38035 c 0,-0.30781 -0.06334,-0.46187 -0.307777,-0.72443 -0.380235,-0.43454 -0.525333,-0.72414 -0.76977,-1.56608 -0.108637,-0.37119 -0.280459,-0.96875 -0.389097,-1.31276 -0.108638,-0.35308 -0.199263,-0.9052 -0.208316,-1.23111 0,-0.38024 -0.06335,-0.67902 -0.15389,-0.82388 -0.09958,-0.14485 -0.135727,-0.38027 -0.126675,-0.66997 0.02716,-0.50699 0.09046,-0.66999 0.289636,-0.66999 0.07242,0 0.117531,-0.0362 0.08133,-0.0903 -0.02716,-0.0453 -0.108354,-0.0635 -0.18078,-0.0271 -0.226329,0.0815 -0.19035,-1.729 0.04504,-2.34461 0.09958,-0.26253 0.181104,-0.69739 0.181104,-0.95995 0,-0.29875 0.03638,-0.46162 0.09072,-0.42538 0.05431,0.0271 0.09038,0.17199 0.09038,0.30778 0,0.13579 0.05424,0.3261 0.126675,0.41663 0.108638,0.15391 0.126804,0.11755 0.190174,-0.38942 0.04528,-0.41646 0.108786,-0.58846 0.235533,-0.65184 0.09053,-0.0544 0.23537,-0.22646 0.316848,-0.38942 0.09053,-0.16296 0.226317,-0.34386 0.31685,-0.40724 0.144849,-0.0995 0.162849,-0.19923 0.108535,-0.67905 -0.02716,-0.30781 -0.108659,-0.6969 -0.172031,-0.86891 -0.11769,-0.28064 -0.117582,-0.31708 0.05443,-0.43478 0.09958,-0.0724 0.235336,-0.31666 0.298709,-0.54299 0.108638,-0.38023 0.162983,-0.42559 0.497952,-0.53423 0.208223,-0.0544 0.706096,-0.1358 1.104436,-0.17203 0.389289,-0.0363 0.760467,-0.10865 0.805731,-0.17204 0.190118,-0.22632 0.543186,-1.49378 0.64277,-2.27237 0.08149,-0.66993 0.153749,-0.9054 0.40724,-1.33089 0.17201,-0.28066 0.317172,-0.58824 0.317172,-0.69688 0,-0.14484 0.05413,-0.19018 0.226137,-0.19018 0.271596,0 0.651968,-0.34403 0.715341,-0.65184 0.02716,-0.10865 0.0905,-0.43467 0.144818,-0.70627 0.108637,-0.57035 0.162825,-0.64274 0.74223,-1.11351 0.325914,-0.26253 0.452741,-0.43437 0.525166,-0.72408 0.126745,-0.50697 0.778486,-1.75632 1.086295,-2.10035 0.298754,-0.31687 0.55222,-0.79676 0.633699,-1.177 0.04528,-0.217276 -0.01804,-0.380232 -0.289635,-0.805717 -0.298755,-0.470769 -0.344046,-0.606689 -0.334992,-1.02313 0.0091,-0.271602 -0.027,-0.534047 -0.08133,-0.588346 -0.181064,-0.181062 -0.126832,-0.516078 0.117603,-0.66997 0.162959,-0.108647 0.22646,-0.226252 0.22646,-0.443535 0,-0.162955 0.06332,-0.344187 0.135749,-0.407559 0.07242,-0.06338 0.135745,-0.262482 0.135745,-0.452597 0,-0.280655 -0.0726,-0.425476 -0.407563,-0.796661 -0.497925,-0.552238 -1.185685,-2.009835 -1.312431,-2.761251 -0.05432,-0.353075 -0.05462,-0.678952 0.0087,-0.950549 0.04528,-0.226329 0.09074,-0.543312 0.09979,-0.706268 0.01416,-0.290343 -0.626721,-1.790621 -1.058108,-2.58242 z m 68.042593,12.72321 -37.04189,18.90049 c -0.0292,0.0658 -0.0806,0.20665 -0.1033,0.25497 -0.25348,0.52508 -0.4615,1.14064 -0.70595,2.07311 -0.0453,0.17202 -0.10887,0.72446 -0.13606,1.22237 -0.0363,0.507 -0.1083,1.09551 -0.18078,1.32183 -0.0634,0.22634 -0.28972,1.15878 -0.49794,2.0822 -0.39834,1.75632 -0.4891,2.09104 -1.07756,4.07368 -0.19916,0.6971 -0.38004,1.49395 -0.39816,1.85607 -0.0544,0.8691 -0.53436,2.13667 -1.24051,3.28643 -0.13579,0.23538 -0.30754,0.60628 -0.36189,0.83261 -0.0634,0.21727 -0.20823,0.59759 -0.32591,0.84203 -0.12676,0.23538 -0.32585,0.82387 -0.4526,1.31276 -0.29877,1.16784 -0.7515,2.53492 -0.85109,2.59827 -0.0452,0.0271 -0.0635,0.17198 -0.0363,0.30778 0.0452,0.19918 0.0182,0.28979 -0.12667,0.36221 -0.22633,0.12676 -0.49816,0.69704 -0.43478,0.94149 0.0271,0.0996 -0.018,0.29866 -0.10854,0.44352 -0.10863,0.19011 -0.21715,0.25368 -0.42537,0.25368 -0.298752,0 -0.497958,0.13584 -0.497958,0.35312 0,0.21727 -0.28073,0.46167 -0.525163,0.46167 -0.126743,0 -0.362208,0.0993 -0.525164,0.22614 -0.162965,0.12674 -0.334765,0.22646 -0.38003,0.22646 -0.04531,0 -0.154073,0.0815 -0.244604,0.18111 -0.09053,0.0996 -0.180834,0.16289 -0.207994,0.13574 -0.02715,-0.0271 -0.108693,0.009 -0.190171,0.0812 -0.181061,0.15391 -0.796788,0.27192 -0.860159,0.15423 -0.09958,-0.14486 -1.041057,-0.20844 -1.747207,-0.0999 -0.87816,0.1358 -3.277164,1.05032 -3.992367,1.52108 -0.280648,0.19011 -0.624901,0.39829 -0.760698,0.46165 -0.135796,0.0724 -0.570351,0.38036 -0.968691,0.69721 -1.032063,0.81478 -1.122673,0.85086 -2.299589,0.89612 -0.552243,0.0181 -1.285259,0.0632 -1.629278,0.0903 -0.606564,0.0634 -0.606809,0.0634 -0.606809,-0.16295 0,-0.2716 -0.08139,-0.3349 -0.760375,-0.61556 -0.407391,-0.16294 -0.588453,-0.30776 -0.805729,-0.62462 -0.153904,-0.22633 -0.3621,-0.47965 -0.470738,-0.56113 -0.235384,-0.19917 -0.905404,-0.40747 -1.656819,-0.52517 -0.334969,-0.0544 -0.941646,-0.1631 -1.349038,-0.23553 -0.407395,-0.0724 -0.841946,-0.12667 -0.968691,-0.12667 -0.208224,0 -0.235207,-0.0363 -0.235207,-0.2987 0,-0.32591 -0.217446,-0.6972 -0.407563,-0.6972 -0.07242,0 -0.316675,-0.16272 -0.552059,-0.37096 -0.380233,-0.33495 -0.461634,-0.3621 -0.769443,-0.31686 -0.316862,0.0544 -0.353355,0.0271 -0.624952,-0.33498 -0.190117,-0.26254 -0.262347,-0.44381 -0.226135,-0.57959 0.05431,-0.24444 -0.199361,-0.95049 -0.579595,-1.56609 -0.253489,-0.40742 -0.280454,-0.51624 -0.226136,-0.89647 0.03621,-0.30779 0.01794,-0.50675 -0.08164,-0.69687 -0.199169,-0.38022 -0.923353,-1.12258 -1.095365,-1.12258 -0.07242,0 -0.19907,-0.13575 -0.271493,-0.29871 -0.06337,-0.16295 -0.226409,-0.37144 -0.362207,-0.45291 -0.19917,-0.1358 -0.235206,-0.22623 -0.235206,-0.59742 0,-0.2354 -0.02729,-0.46173 -0.06349,-0.48887 -0.0036,-0.003 -0.0014,-0.18318 -0.0045,-0.20347 l -37.978592,19.37845 c -0.0386,0.0196 -0.05402,0.0667 -0.03434,0.10524 l 17.541078,34.37719 c 0.01969,0.0386 0.06671,0.0537 0.10529,0.0341 L 162.16905,135.15224 c 0.0384,-0.0197 0.0537,-0.0667 0.0341,-0.10524 l -17.5408,-34.3771 c -0.0197,-0.0386 -0.0667,-0.0539 -0.10524,-0.0343 z" /><path
       id="path65"
       d="m 117.74143,33.242111 c -0.0453,0 -0.31678,0.244554 -0.60649,0.543309 -0.29875,0.298756 -0.58844,0.54331 -0.64276,0.54331 -0.23538,0 -0.0725,0.180983 0.26241,0.280569 0.38025,0.117692 0.45278,0.253426 0.21738,0.452596 -0.0815,0.07242 -0.11754,0.190099 -0.0903,0.316845 0.0815,0.298756 -0.0274,0.488882 -0.27181,0.488882 -0.1358,0 -0.21707,0.05429 -0.21707,0.144816 0,0.09958 -0.0452,0.126925 -0.14482,0.09072 -0.16295,-0.06337 -0.95083,0.452578 -0.93273,0.606483 0.0271,0.162958 -0.10842,0.832896 -0.18985,0.968692 -0.10865,0.172013 -0.41652,-0.03629 -0.52516,-0.362199 -0.0815,-0.235384 -0.14503,-0.271498 -0.41662,-0.271498 -0.17203,0 -0.37111,-0.02727 -0.44355,-0.05442 -0.0904,-0.02716 -0.15391,0.0093 -0.17202,0.108851 -0.0181,0.108638 0.18118,0.37101 0.54331,0.724086 0.30782,0.316861 0.52505,0.588421 0.47074,0.624634 -0.18107,0.117692 -0.0997,0.498126 0.12666,0.588658 0.19918,0.07242 0.21721,0.108355 0.1267,0.343741 -0.0814,0.217277 -0.0635,0.316907 0.14481,0.669984 0.29875,0.50698 0.2717,0.643049 -0.26243,1.747532 -0.54317,1.086384 -0.66996,1.602399 -0.49795,1.928313 0.0814,0.126746 0.23545,0.262489 0.36221,0.298702 0.21728,0.06337 0.21712,0.0633 -0.0726,0.126683 -0.30781,0.07243 -0.56112,0.33485 -0.56112,0.58834 0,0.190118 -0.42573,0.597648 -0.75163,0.715339 -0.38023,0.144851 -1.07705,0.117602 -1.31244,-0.04537 -0.10865,-0.07242 -0.19924,-0.226358 -0.19924,-0.334996 0,-0.280649 -0.0995,-0.606484 -0.1811,-0.606484 -0.0996,0 -0.009,0.80588 0.14482,1.204221 0.17201,0.461714 0.16298,0.488793 -0.14482,0.443527 -0.1539,-0.01811 -0.2715,-1.82e-4 -0.2715,0.05409 0,0.05431 -0.19939,0.118 -0.43477,0.154213 l -0.44351,0.05412 -0.0995,0.561454 c -0.0543,0.307809 -0.13581,0.760233 -0.16296,1.013721 -0.0635,0.461716 -0.14503,0.588659 -0.41664,0.588659 -0.25348,0 -0.47054,-0.307925 -0.69687,-1.032183 -0.15391,-0.452659 -0.28077,-0.706024 -0.38941,-0.742237 -0.0904,-0.02716 -0.22629,-0.171992 -0.29871,-0.316843 -0.16297,-0.307808 -0.36204,-0.344184 -0.43446,-0.08164 -0.0271,0.09958 -0.10865,0.1811 -0.19017,0.1811 -0.16296,0 -0.19023,-0.135608 -0.0545,-0.22614 0.0724,-0.04527 0.0633,-0.09964 -0.009,-0.190172 -0.0905,-0.117691 -0.13572,-0.108582 -0.28056,0.02721 -0.10866,0.09958 -0.16291,0.235158 -0.13576,0.370955 0.0363,0.172012 0,0.199208 -0.15387,0.181102 -0.16298,-0.02716 -0.19936,0.0361 -0.2537,0.425382 -0.0453,0.244437 -0.10864,0.615637 -0.15386,0.814806 -0.0996,0.416449 0.0273,1.186207 0.22645,1.412537 0.0724,0.08149 0.2897,0.21725 0.48887,0.307781 0.19918,0.09053 0.36189,0.189919 0.36189,0.226132 0,0.172011 -0.28049,0.280795 -0.56112,0.235528 l -0.29871,-0.06349 0.24427,0.136069 c 0.39835,0.235383 0.79667,0.687936 0.79667,0.914267 0,0.362127 -0.20825,1.1679 -0.335,1.312751 -0.0995,0.117692 -0.10842,0.0905 -0.0631,-0.181101 0.0362,-0.172011 0.0995,-0.389261 0.13573,-0.47074 0.0453,-0.08149 0.0814,-0.271777 0.0814,-0.416628 0,-0.217276 -0.0451,-0.280638 -0.24427,-0.316852 -0.14485,-0.02716 -0.32608,-0.08136 -0.40756,-0.108536 -0.2263,-0.09052 -0.20818,0.190227 0.0181,0.380343 0.21729,0.190119 0.23547,0.588422 0.0363,0.787593 -0.22633,0.226331 -0.66071,0.180884 -0.87799,-0.09072 l -0.19019,-0.244283 -0.15388,0.199253 c -0.0815,0.09958 -0.13601,0.27136 -0.10888,0.370946 0.0363,0.117692 -0.0543,0.271587 -0.28058,0.47981 -0.28064,0.271596 -0.32592,0.3623 -0.32592,0.733483 0,0.235384 0.0455,0.515997 0.0999,0.624635 0.0634,0.09958 0.10853,0.335022 0.11761,0.516086 l 0.009,0.316855 0.63371,0.06317 c 0.36213,0.0362 0.74222,0.02712 0.89612,-0.01813 0.32591,-0.108638 0.43461,-0.02687 0.19018,0.145141 -0.10865,0.08149 -0.28053,0.117555 -0.42539,0.0904 -0.14485,-0.02716 -0.38033,-0.08138 -0.53425,-0.108536 -0.30779,-0.06337 -0.71533,0.09954 -0.71533,0.29871 0,0.06337 -0.0813,0.162759 -0.18078,0.226132 -0.0995,0.06337 -0.1811,0.172182 -0.1811,0.244607 0,0.06337 -0.0997,0.217297 -0.22646,0.334988 -0.12675,0.117692 -0.22612,0.289531 -0.22612,0.39817 0,0.208222 -0.39847,1.041118 -0.54333,1.131651 -0.0453,0.02716 -0.0907,0.126834 -0.0907,0.208314 0,0.09052 -0.0902,0.199343 -0.19892,0.244607 -0.11769,0.05431 -0.22652,0.190101 -0.25367,0.316848 -0.0634,0.316864 -0.19001,0.497885 -0.42538,0.624629 -0.20824,0.108637 -0.20832,0.09957 -0.20832,-0.488883 0,-0.561294 0.0273,-0.624704 0.40756,-1.14979 0.22633,-0.307809 0.40724,-0.597494 0.40724,-0.633707 0,-0.04527 -0.0634,-0.181009 -0.14481,-0.2987 -0.0724,-0.117692 -0.13574,-0.28982 -0.1267,-0.380352 0.0272,-0.217277 -0.0906,-0.570198 -0.19017,-0.570198 -0.15391,0 -1.44844,1.403092 -1.42128,1.53889 0.0181,0.09053 0.13581,0.135744 0.32593,0.135744 0.43454,0 0.35289,0.163058 -0.25368,0.534239 -0.45266,0.28065 -0.5432,0.371264 -0.48888,0.525167 0.0543,0.19012 1.2e-4,0.253378 -0.7513,0.751304 -0.59752,0.389288 -0.823909,0.715183 -0.67906,0.959619 0.06338,0.09053 0.10886,0.24446 0.10886,0.334992 0,0.09053 0.0994,0.217173 0.21707,0.271493 0.19011,0.08149 0.50702,0.751578 0.50702,1.050332 0,0.108638 -0.832988,0.479902 -1.177005,0.525168 -0.398344,0.04527 -0.335001,-0.262663 0.144812,-0.706271 0.235393,-0.217277 0.398423,-0.434525 0.362203,-0.470738 -0.0362,-0.03621 -0.23529,-0.145017 -0.44352,-0.244602 -0.253486,-0.126744 -0.398269,-0.262479 -0.452588,-0.452596 -0.0543,-0.153905 -0.09981,-0.280582 -0.108864,-0.289635 -0.03623,-0.05431 -0.769445,0.27162 -0.769445,0.334992 0,0.0362 -0.13573,0.126802 -0.289632,0.190174 -0.162965,0.06337 -0.543261,0.362139 -0.842022,0.651842 -0.298755,0.298755 -0.669985,0.597541 -0.832943,0.660912 -0.162959,0.07242 -0.325669,0.180907 -0.361883,0.244279 -0.03621,0.07243 -0.371355,0.316997 -0.733484,0.552381 -0.561298,0.380233 -1.086441,0.887236 -1.321825,1.303683 -0.04527,0.07242 -0.0088,0.190033 0.07257,0.280564 0.135798,0.153903 0.135817,0.171926 0.0091,0.280564 -0.126745,0.09958 -0.181233,0.08148 -0.407564,-0.162961 -0.226329,-0.253489 -0.325709,-0.289633 -0.705944,-0.289633 -0.353075,0 -0.47994,0.04512 -0.706269,0.253347 -0.144851,0.144853 -0.353047,0.307905 -0.470739,0.371277 -0.144852,0.08149 -0.190102,0.162892 -0.153889,0.289637 0.08149,0.253489 -0.03615,0.208437 -0.135746,-0.05409 -0.04528,-0.126745 -0.163123,-0.253746 -0.244603,-0.289958 -0.09052,-0.03621 -0.262353,-0.135605 -0.389097,-0.226136 -0.262542,-0.208223 -0.823915,-0.144939 -1.167936,0.117603 -0.117691,0.09958 -0.344066,0.172032 -0.507024,0.172032 -0.190117,0 -0.362173,0.08162 -0.507024,0.235531 -0.217277,0.226329 -0.262439,0.479557 -0.271492,1.484463 0,0.298754 -0.009,0.307774 -0.135746,0.144816 -0.07242,-0.09958 -0.126999,-0.253226 -0.126999,-0.35281 0,-0.144851 -0.04512,-0.163175 -0.253352,-0.108852 -0.135796,0.03621 -0.470634,0.09953 -0.742229,0.135746 -0.271596,0.04527 -0.570382,0.09986 -0.660914,0.136069 -0.144851,0.06337 -0.144886,0.0814 -0.01814,0.280564 0.07243,0.117692 0.135746,0.26255 0.135746,0.325922 -0.0091,0.108638 -0.570472,0.525166 -0.70627,0.525166 -0.03621,0 -0.05406,-0.163054 -0.03596,-0.371277 0.02716,-0.199171 -0.0092,-0.41642 -0.0635,-0.47074 -0.05431,-0.05431 -0.09946,-0.190067 -0.09946,-0.298706 0,-0.289702 -0.15411,-0.353057 -0.425707,-0.153889 -0.126744,0.09052 -0.362225,0.244173 -0.534237,0.352811 -0.162958,0.09958 -0.561134,0.452943 -0.887048,0.787912 -0.389288,0.407394 -0.642737,0.606484 -0.787588,0.606484 -0.22633,0.0091 -0.715341,0.370974 -0.715341,0.542986 0,0.144851 -0.126605,0.108786 -0.253349,-0.09038 -0.09053,-0.153904 -0.190093,-0.181067 -0.633699,-0.162959 -0.280651,0.01811 -0.932431,-0.0092 -1.430358,-0.04536 -0.914373,-0.07242 -0.91439,-0.07248 -0.977763,0.135745 -0.108638,0.434555 -0.05446,1.964674 0.09038,2.326802 0.126745,0.33497 0.126745,0.380406 0,0.570524 -0.09052,0.126745 -0.144817,0.389083 -0.144817,0.705946 0,0.434553 -0.03636,0.543365 -0.235532,0.733484 -0.126744,0.117691 -0.316725,0.352848 -0.41631,0.533914 -0.588458,0.986797 -1.412417,2.263306 -1.67496,2.589222 -0.162957,0.208224 -0.298706,0.480064 -0.298706,0.606809 0,0.144851 -0.153749,0.407189 -0.407239,0.705945 -0.22633,0.262544 -0.452704,0.642864 -0.507025,0.851088 -0.05431,0.19917 -0.18096,0.488883 -0.271492,0.651841 -0.162958,0.25349 -0.172228,0.380167 -0.108853,1.258325 0.07242,0.977746 0.0725,0.986874 0.362207,1.167938 l 0.280563,0.181103 -0.0091,1.53889 c -0.0091,1.004906 0.02739,1.75643 0.108853,2.154769 0.09958,0.497926 0.0996,0.715222 0.0091,1.140723 -0.117693,0.579405 -0.03643,0.850897 0.380025,1.240185 0.307808,0.289703 1.376217,2.68878 1.35811,3.05996 -0.0091,0.162957 -0.05452,0.479939 -0.09979,0.70627 -0.06337,0.271595 -0.06306,0.597474 -0.0087,0.95055 0.126744,0.751413 0.814503,2.209017 1.31243,2.761254 0.334967,0.371186 0.407563,0.516007 0.407563,0.796662 0,0.190114 -0.06332,0.389216 -0.135747,0.452597 -0.07242,0.06338 -0.135745,0.244603 -0.135745,0.407568 0,0.217283 -0.06349,0.334879 -0.22646,0.443525 -0.244437,0.153893 -0.298669,0.488918 -0.117604,0.66998 0.05431,0.0543 0.09037,0.316744 0.08133,0.588336 -0.0091,0.416451 0.03623,0.552361 0.334991,1.023112 0.271596,0.425504 0.334901,0.58845 0.289636,0.805737 -0.08149,0.38023 -0.334943,0.86014 -0.633699,1.17701 -0.307808,0.34402 -0.95955,1.59336 -1.086295,2.10035 -0.07242,0.2897 -0.199251,0.46152 -0.525167,0.72407 -0.579404,0.47077 -0.633592,0.54316 -0.74223,1.11351 -0.05431,0.2716 -0.117659,0.59764 -0.144817,0.70628 -0.06338,0.3078 -0.443745,0.65184 -0.715342,0.65184 -0.172011,0 -0.226135,0.0455 -0.226135,0.19018 0,0.10865 -0.145163,0.41622 -0.317172,0.69688 -0.25349,0.42549 -0.325761,0.66096 -0.407241,1.33088 -0.09958,0.77858 -0.452653,2.04606 -0.642771,2.27237 -0.04527,0.0633 -0.416441,0.13583 -0.80573,0.17203 -0.39834,0.0363 -0.896212,0.11772 -1.104437,0.17204 -0.334967,0.10865 -0.389313,0.15401 -0.497951,0.53424 -0.06337,0.22633 -0.199122,0.47056 -0.298708,0.54297 -0.172011,0.1177 -0.172119,0.15414 -0.05443,0.43479 0.06337,0.17202 0.144873,0.56109 0.172032,0.8689 0.05431,0.47983 0.03631,0.57947 -0.108536,0.67907 -0.09052,0.0635 -0.226318,0.24428 -0.316851,0.40722 -0.08149,0.16296 -0.226315,0.33512 -0.316848,0.38944 -0.126744,0.0635 -0.190264,0.23538 -0.235531,0.65185 -0.06338,0.50696 -0.08154,0.5433 -0.190175,0.38941 -0.07242,-0.0905 -0.126676,-0.28085 -0.126676,-0.41665 0,-0.1358 -0.03607,-0.28062 -0.09038,-0.30777 -0.05431,-0.0363 -0.09072,0.12663 -0.09072,0.42538 0,0.26255 -0.08152,0.6974 -0.181105,0.95994 -0.235382,0.61561 -0.271361,2.42609 -0.04504,2.34463 0.07242,-0.0362 0.153618,-0.018 0.180778,0.0272 0.03621,0.0543 -0.0088,0.0903 -0.08132,0.0903 -0.199169,0 -0.262474,0.16301 -0.289635,0.66999 -0.0091,0.28971 0.02709,0.52513 0.126674,0.66998 0.09053,0.14485 0.153889,0.44364 0.153889,0.82387 0.0091,0.32592 0.09968,0.87804 0.208317,1.23111 0.108638,0.34402 0.28046,0.94157 0.389098,1.31276 0.244436,0.84195 0.389534,1.13154 0.769769,1.56609 0.244435,0.26256 0.307779,0.41662 0.307779,0.72443 l 0.0091,0.38034 0.18078,-0.22647 0.190175,-0.22644 0.217387,0.25367 c 0.153905,0.18106 0.21739,0.36213 0.21739,0.64277 0,0.20822 0.03605,0.41643 0.08133,0.47074 0.03621,0.0453 0.126784,0.34406 0.181103,0.66998 0.135797,0.72426 0.271458,1.08629 0.416309,1.08629 0.05431,0 0.262803,0.13575 0.452921,0.29871 l 0.343738,0.29871 -0.08133,0.62495 c -0.08149,0.59751 -0.09069,0.62451 -0.398492,0.72408 -0.244436,0.0814 -0.325724,0.17221 -0.389096,0.41663 -0.162957,0.64279 -0.172065,1.07736 -0.02721,1.29462 0.117691,0.18107 0.135728,0.5431 0.126675,2.21796 -0.0091,1.09543 0.0092,2.02783 0.04536,2.06404 0.03621,0.0271 0.0635,0.2535 0.0635,0.4889 0,0.37117 0.03604,0.46159 0.235207,0.59741 0.135797,0.0815 0.298833,0.28994 0.362206,0.45292 0.07242,0.16295 0.199066,0.29871 0.271492,0.29871 0.17201,0 0.896196,0.74234 1.095365,1.12257 0.09958,0.19013 0.117856,0.38906 0.08164,0.69687 -0.05431,0.38023 -0.02735,0.48905 0.226136,0.89645 0.380235,0.61561 0.633913,1.32167 0.579594,1.5661 -0.03621,0.1358 0.03602,0.31706 0.226136,0.57959 0.271597,0.36213 0.30809,0.38933 0.624951,0.335 0.307809,-0.0453 0.389211,-0.0181 0.769445,0.31685 0.235384,0.20821 0.47963,0.37097 0.552056,0.37097 0.190118,0 0.407564,0.37127 0.407564,0.69719 0,0.26254 0.02697,0.29869 0.235207,0.29869 0.126744,0 0.561297,0.0543 0.968692,0.12669 0.407393,0.0724 1.014069,0.18121 1.349039,0.23552 0.751416,0.11769 1.421433,0.32601 1.656818,0.52517 0.108638,0.0814 0.316834,0.33481 0.470737,0.56112 0.217276,0.31688 0.398337,0.46167 0.805731,0.62464 0.67899,0.28063 0.760373,0.34396 0.760373,0.61555 0,0.22634 2.44e-4,0.22634 0.60681,0.16296 0.34402,-0.0271 1.077033,-0.0723 1.629279,-0.0904 1.176916,-0.0453 1.267523,-0.0813 2.299588,-0.89612 0.39834,-0.31685 0.832892,-0.62477 0.968691,-0.69719 0.135798,-0.0635 0.480047,-0.27154 0.760697,-0.46167 0.715203,-0.47076 3.114206,-1.38526 3.992366,-1.52107 0.706151,-0.10864 1.647623,-0.0451 1.747208,0.0999 0.06337,0.1177 0.679095,-3e-4 0.860157,-0.15421 0.08145,-0.0724 0.163021,-0.10842 0.19018,-0.0814 0.02715,0.0271 0.117454,-0.0363 0.207994,-0.13576 0.09053,-0.0996 0.199329,-0.18109 0.244603,-0.18109 0.04522,0 0.217066,-0.0998 0.380022,-0.22647 0.162955,-0.12674 0.39842,-0.22612 0.525163,-0.22612 0.244433,0 0.525164,-0.24441 0.525164,-0.46167 0,-0.21728 0.199205,-0.35315 0.497954,-0.35315 0.20822,0 0.31676,-0.0636 0.42538,-0.25367 0.0906,-0.14485 0.13571,-0.34394 0.10855,-0.44352 -0.0634,-0.24444 0.20843,-0.81474 0.43477,-0.94147 0.14486,-0.0724 0.17193,-0.16305 0.12668,-0.36222 -0.0271,-0.1358 -0.01,-0.28061 0.0363,-0.30778 0.0996,-0.0634 0.55233,-1.43042 0.85108,-2.59829 0.12674,-0.48887 0.32584,-1.07737 0.45261,-1.31276 0.11769,-0.24443 0.26253,-0.62474 0.32591,-0.842 0.0544,-0.22635 0.22609,-0.59726 0.36188,-0.83263 0.70614,-1.14976 1.18618,-2.41731 1.2405,-3.28643 0.0181,-0.36212 0.19901,-1.15897 0.39818,-1.85605 0.58845,-1.98266 0.67921,-2.31737 1.07754,-4.07369 0.20822,-0.92343 0.43458,-1.85587 0.49796,-2.08221 0.0724,-0.22633 0.14456,-0.81482 0.18078,-1.32182 0.027,-0.49791 0.0909,-1.05035 0.13607,-1.22236 0.24444,-0.93248 0.45245,-1.54804 0.70595,-2.07313 0.1539,-0.32592 0.47086,-1.09531 0.69721,-1.71999 0.22632,-0.62467 0.57931,-1.53924 0.76942,-2.03717 0.19012,-0.49791 0.37135,-1.05002 0.40756,-1.22203 0.0363,-0.17201 0.16288,-0.50688 0.28057,-0.75131 0.12677,-0.23538 0.28979,-0.74235 0.3622,-1.13165 0.16298,-0.79668 0.38923,-1.62053 0.76947,-2.75219 0.28063,-0.86909 0.59763,-2.06433 0.71532,-2.69806 0.31686,-1.8016 1.24007,-4.5085 2.14539,-6.30103 0.57939,-1.14976 0.59754,-1.222147 0.66998,-2.082199 0.11769,-1.484724 0.37129,-2.417262 1.02311,-3.748092 0.24444,-0.516026 0.32593,-0.787675 0.32593,-1.15886 0,-0.298761 0.0635,-0.606292 0.18111,-0.832628 0.28063,-0.552242 1.41229,-3.639377 1.78349,-4.84345 0.0724,-0.25349 0.25329,-0.66108 0.38908,-0.905517 0.14485,-0.262542 0.33489,-0.832701 0.44353,-1.357786 0.23539,-1.113544 0.36212,-1.620697 0.96869,-3.802517 l 0.4798,-1.719993 -0.1717,-0.271817 c -0.0996,-0.162956 -0.18116,-0.506722 -0.20831,-0.841692 -0.0181,-0.307808 -0.0814,-0.615665 -0.13577,-0.669985 -0.0634,-0.06337 -0.10886,-0.172194 -0.10886,-0.253672 0,-0.08149 -0.0633,-0.226336 -0.13575,-0.325921 -0.20822,-0.280649 -0.15378,-0.615353 0.21739,-1.321503 0.19917,-0.37118 0.43466,-0.914519 0.53424,-1.204222 0.0995,-0.298755 0.30777,-0.814825 0.46166,-1.149792 0.29876,-0.651831 0.27138,-0.633541 1.34873,-0.877978 0.21726,-0.04527 0.41668,-0.10891 0.44384,-0.13607 0.0271,-0.02716 -0.0999,-0.217141 -0.28088,-0.41631 -0.24445,-0.271596 -0.32589,-0.443545 -0.30779,-0.615555 0.0181,-0.162959 0.0724,-0.235514 0.16297,-0.226462 0.0814,0.01811 0.21726,-0.117679 0.31685,-0.316849 0.0995,-0.181064 0.24445,-0.434366 0.33498,-0.552057 0.0905,-0.117692 0.16297,-0.317121 0.16297,-0.45292 0.009,-0.126744 0.0634,-0.334922 0.13573,-0.461666 0.17202,-0.307809 0.17219,-0.352992 -0.0812,-0.443525 -0.30781,-0.126744 -0.3621,-0.624621 -0.14481,-1.267398 l 0.1811,-0.497951 -0.19924,-0.208317 c -0.1177,-0.108638 -0.34407,-0.2171 -0.50703,-0.235207 -0.38024,-0.06337 -0.56145,-0.208216 -0.56145,-0.479811 0,-0.108637 -0.0361,-0.235586 -0.0903,-0.262746 -0.15391,-0.09053 -0.0998,-0.615488 0.0903,-0.90519 0.20822,-0.316861 0.22642,-0.570348 0.0454,-0.805731 -0.0724,-0.09958 -0.13574,-0.271727 -0.13574,-0.389419 0,-0.117693 -0.0814,-0.398281 -0.18111,-0.615558 -0.13579,-0.289702 -0.17194,-0.497812 -0.12668,-0.751301 0.0363,-0.25349 0.018,-0.371458 -0.0907,-0.461992 -0.41645,-0.34402 0.19042,-1.24011 0.79699,-1.203898 0.17199,0.0091 0.33475,-0.01826 0.37093,-0.07257 0.0724,-0.126745 0.74241,-0.117673 0.8239,0.0091 0.0363,0.05431 0.0545,0.326123 0.0545,0.588666 0,0.443606 0.0271,0.51581 0.2715,0.696875 0.25349,0.181062 0.27172,0.226285 0.22647,0.624625 -0.0543,0.398341 -0.0272,0.452762 0.22611,0.697199 0.20822,0.199171 0.28092,0.34398 0.28997,0.624627 0.0271,0.434553 0.33497,0.832945 0.64278,0.832945 0.24442,0 0.40722,0.163164 0.40722,0.425705 0,0.25349 0.0543,0.253221 0.43446,0.02689 0.19012,-0.117693 0.31692,-0.280603 0.35313,-0.461667 0.0362,-0.181065 0.12697,-0.307887 0.27182,-0.362206 0.17202,-0.06337 0.2079,-0.126642 0.16264,-0.271493 -0.0453,-0.135798 -0.0179,-0.198995 0.127,-0.235208 0.14484,-0.03621 0.19017,-0.117806 0.19017,-0.380348 0,-0.362128 0.44342,-1.674915 0.71502,-2.136628 0.20822,-0.353075 0.55239,-1.566201 0.55239,-1.937381 0,-0.144852 -0.0634,-0.307905 -0.13576,-0.371278 -0.0724,-0.06338 -0.13607,-0.171835 -0.13607,-0.235208 0,-0.07242 -0.0815,-0.208191 -0.1811,-0.307776 -0.0995,-0.09958 -0.18078,-0.244443 -0.18078,-0.325922 0,-0.08149 -0.14483,-0.307852 -0.31685,-0.507023 -0.18107,-0.190117 -0.42565,-0.570436 -0.56146,-0.851086 -0.12673,-0.271595 -0.26251,-0.515823 -0.30776,-0.542983 -0.0453,-0.02716 -0.0816,-0.181092 -0.0816,-0.334996 -0.009,-0.162959 -0.0633,-0.389352 -0.13575,-0.516098 -0.0724,-0.126744 -0.13576,-0.353101 -0.13576,-0.497952 0,-0.153906 -0.0815,-0.525132 -0.18109,-0.832941 -0.19016,-0.606633 -0.24445,-1.566246 -0.1358,-2.408184 0.0633,-0.470767 0.0453,-0.543066 -0.13576,-0.742238 -0.19009,-0.208222 -0.19907,-0.253716 -0.11758,-0.923653 0.0724,-0.561298 0.0633,-0.742201 -0.0272,-0.887052 -0.0904,-0.117692 -0.12666,-0.461857 -0.12666,-1.041264 0,-0.851001 -0.0724,-1.294527 -0.31686,-1.901092 -0.0633,-0.172009 -0.25365,-0.715366 -0.40756,-1.213293 -0.21728,-0.697095 -0.26266,-0.986536 -0.21739,-1.321505 0.0635,-0.488874 -0.063,-0.805897 -0.49762,-1.213292 -0.26255,-0.25349 -0.28089,-0.307791 -0.28089,-0.959623 0,-0.380234 -0.027,-0.724156 -0.0631,-0.760369 -0.0453,-0.03621 -0.11771,-0.217431 -0.16296,-0.398495 -0.0543,-0.181065 -0.15404,-0.34406 -0.22646,-0.34406 -0.0724,-0.0091 -0.17213,-0.01785 -0.21738,-0.02689 -0.0453,0 -0.0271,-0.06364 0.0272,-0.127007 0.11769,-0.144851 0.0452,-0.244273 -0.1811,-0.244273 -0.17202,0 -0.26242,-0.17204 -0.26242,-0.497955 0,-0.117691 -0.0451,-0.244327 -0.0995,-0.271487 -0.0543,-0.03621 -0.0725,-0.117755 -0.0453,-0.190181 0.0271,-0.08149 -0.009,-0.126674 -0.12666,-0.126674 -0.0904,0 -0.19933,-0.04545 -0.22648,-0.09072 -0.10866,-0.17201 -0.29885,-0.09054 -0.3622,0.153887 l -0.0631,0.25368 -0.0907,-0.226466 c -0.0453,-0.126744 -0.0635,-0.362208 -0.0272,-0.525168 0.0543,-0.271596 0.0364,-0.28963 -0.21707,-0.28963 -0.31686,0 -0.43476,-0.135806 -0.2718,-0.325924 0.0814,-0.09958 0.0727,-0.162886 -0.045,-0.28963 -0.16297,-0.190118 -0.19023,-0.35323 -0.0545,-0.398496 0.12674,-0.0362 -0.33504,-1.357754 -0.52515,-1.502606 -0.0904,-0.07243 -0.2624,-0.09973 -0.40725,-0.07257 -0.21727,0.04527 -0.27175,0.0092 -0.3985,-0.28963 -0.19916,-0.434552 -0.38005,-0.651849 -0.55205,-0.651849 -0.0996,0 -0.11783,0.07233 -0.0725,0.271497 0.0635,0.344022 -0.14479,0.371272 -0.28963,0.04535 -0.0543,-0.117692 -0.20824,-0.244355 -0.335,-0.280568 -0.20822,-0.05431 -0.23541,-0.09047 -0.1811,-0.298702 0.0815,-0.298754 0.10876,-0.326005 0.25368,-0.208314 0.0634,0.05431 0.20821,0.08157 0.31686,0.04535 0.10864,-0.02716 0.25347,-1.8e-4 0.32592,0.05409 0.23538,0.199169 0.22627,-0.03618 -0.0272,-0.787593 -0.23538,-0.678991 -0.55244,-1.19515 -0.74255,-1.19515 z m -5.10814,7.274251 c -0.0266,0.0028 -0.0764,0.07652 -0.14254,0.231003 -0.0996,0.217276 -0.16293,0.262668 -0.3078,0.226457 -0.18105,-0.06337 -0.18107,-0.05438 -0.009,0.135744 0.23538,0.262542 0.2805,0.244399 0.40724,-0.181101 0.0807,-0.268771 0.0911,-0.416213 0.0522,-0.412103 z m -2.79203,2.957267 c -0.082,0.0042 -0.15777,0.03396 -0.19343,0.08942 -0.0271,0.05431 -0.0271,0.180974 0,0.280557 0.0633,0.181065 0.0363,0.190046 -0.31684,0.126673 -0.28064,-0.04528 -0.37116,-0.03614 -0.31684,0.03629 0.0362,0.06337 0.0183,0.154021 -0.0361,0.217393 -0.0635,0.08149 -0.0273,0.244229 0.10853,0.542985 0.22634,0.488874 0.39841,0.570341 0.99593,0.47981 0.38022,-0.06337 0.38908,-0.06321 0.38001,-0.398169 -0.0181,-0.37118 -0.20794,-1.086331 -0.34374,-1.267394 -0.0561,-0.07639 -0.17222,-0.112987 -0.27764,-0.107563 z m 0.48953,2.089644 c -0.0814,0.0025 -0.0965,0.0433 -0.0762,0.145149 0.0363,0.199171 0.38912,0.226385 0.38912,0.02722 0,-0.07242 -0.0993,-0.144859 -0.20801,-0.162965 -0.043,-0.0068 -0.0778,-0.01024 -0.10501,-0.0094 z m -4.39475,4.336759 c -0.0181,0 -0.0542,0.09971 -0.0814,0.226457 -0.0724,0.298755 -0.009,0.407239 0.26242,0.407239 h 0.21739 l -0.18107,-0.316844 c -0.10866,-0.172011 -0.19929,-0.316852 -0.21741,-0.316852 z m -0.40724,0.995906 c -0.0453,0 -0.0907,0.03638 -0.0907,0.09072 0,0.04527 0.0455,0.09038 0.0907,0.09038 0.0543,0 0.0903,-0.04512 0.0903,-0.09038 0,-0.05431 -0.0361,-0.09072 -0.0903,-0.09072 z m 0.46912,0.413714 c -0.0223,0.0013 -0.0404,0.01147 -0.0528,0.03014 -0.0363,0.04527 0.0271,0.135536 0.13574,0.189855 0.2535,0.135798 0.308,0.06345 0.0908,-0.126673 -0.0713,-0.06535 -0.13088,-0.09557 -0.17366,-0.09332 z m -1.67627,2.943007 c -0.0467,0.0025 -0.0852,0.04265 -0.11468,0.119875 -0.0271,0.07243 -0.0363,0.226367 -0.0181,0.344058 0.0181,0.153905 0.0725,0.199216 0.20832,0.18111 0.29876,-0.05431 0.34406,-0.163149 0.18112,-0.416639 -0.10211,-0.155887 -0.18827,-0.232096 -0.25661,-0.228404 z m 19.42308,18.282016 c -0.0516,0.0013 -0.13152,0.05441 -0.23619,0.170413 -0.0814,0.09053 -0.12694,0.226281 -0.0999,0.298707 0.0271,0.07242 -0.0455,0.217282 -0.1811,0.325921 -0.12674,0.108638 -0.22613,0.280762 -0.22613,0.380348 0,0.09958 -0.0633,0.208389 -0.13574,0.244601 -0.16296,0.05431 -0.43467,0.543186 -0.37128,0.642771 0.0453,0.08149 -0.28956,1.104441 -0.41633,1.267397 -0.0543,0.06337 -0.0725,0.13582 -0.0362,0.172033 0.0634,0.07243 0.0179,0.126733 0.53391,-0.651841 0.22634,-0.353076 0.5251,-0.914611 0.65186,-1.24958 0.12674,-0.344022 0.30796,-0.778573 0.40756,-0.96869 0.19917,-0.385893 0.22296,-0.634777 0.10955,-0.63208 z"
       style="display:inline;fill:#000000;fill-opacity:0;stroke:none;stroke-width:0.331752;stroke-dasharray:none;stroke-opacity:1" /><text
       xml:space="preserve"
       style="font-style:normal;font-variant:normal;font-weight:normal;font-stretch:normal;font-size:128.857px;line-height:0;font-family:'Noto Sans Sora Sompeng';-inkscape-font-specification:'Noto Sans Sora Sompeng';letter-spacing:26.8446px;display:inline;fill:#318fbd;fill-opacity:1;stroke:#318fbd;stroke-width:6.371;stroke-linecap:square;stroke-linejoin:miter;stroke-miterlimit:4.9;stroke-dasharray:none;stroke-opacity:1"
       x="220.075"
       y="143.98141"
       id="text75"><tspan
         id="tspan75"
         style="font-size:128.857px;letter-spacing:26.8446px;fill:#ffffff;fill-opacity:1;stroke:#ffffff;stroke-width:6.371;stroke-linecap:square;stroke-linejoin:miter;stroke-miterlimit:4.9;stroke-dasharray:none;stroke-opacity:1"
         x="220.075"
         y="143.98141">AZURE</tspan></text></g></svg>
